# xmcd
#
# Track frame offsets: 
#        150
#        18135
#        32670
#        46970
#        56000
#        72295
#        83255
#        98530
#        115452
#        131595
#        145777
#        166072
#        180115
#        194472
#        210385
#        228045
#        246730
#
# Disc length: 3430 seconds
#
# Revision: 0
# Processed by: cddbd v1.5.2PL0 Copyright (c) Steve Scherf et al.
# Submitted via: ExactAudioCopy v0.95b3
#
DISCID=d30d6411
DTITLE=Sly and The Family Stone  - A Whole New Thing  FLAC
DYEAR=1900
DGENRE=
TTITLE0=Underdog
TTITLE1=If This Room Could Talk
TTITLE2=Run, Run, Run
TTITLE3=Turn Me Loose
TTITLE4=Let Me Hear It From You
TTITLE5=Advice
TTITLE6=I Cannot Make It
TTITLE7=Trip To Your Heart
TTITLE8=I Hate To Love Her
TTITLE9=Bad Risk
TTITLE10=That Kind Of Person
TTITLE11=Dog
TTITLE12=Underdog
TTITLE13=Let Me Hear It From You
TTITLE14=Only One Way Out Of This Mess
TTITLE15=What Would I Do
TTITLE16=You Better Help Yourself
EXTD=
EXTT0=
EXTT1=
EXTT2=
EXTT3=
EXTT4=
EXTT5=
EXTT6=
EXTT7=
EXTT8=
EXTT9=
EXTT10=
EXTT11=
EXTT12=
EXTT13=
EXTT14=
EXTT15=
EXTT16=
PLAYORDER=
